<svg xmlns="http://www.w3.org/2000/svg" viewBox="0 0 30 30" width="30" height="30">
  <path fill="#f59e0b" d="M6.03 5.73v17.79L2.05 8.45C1.82 7.59 2.34 6.7 3.21 6.47L6.03 5.73zM12.17 3.99c-.1.21-.19.43-.25.67L8.03 19.18V5.61c0-.9.72-1.62 1.62-1.62H12.17zM22.351 27.574l-11.962-3.201c-.865-.232-1.379-1.121-1.148-1.986l4.606-17.214c.232-.865 1.121-1.379 1.986-1.148l11.962 3.201c.865.232 1.379 1.121 1.148 1.986l-4.606 17.214C24.106 27.292 23.217 27.806 22.351 27.574zM20.436 10.632c-1.912 2.144-5.181 1.923-5.937 4.713-.325 1.199.383 2.433 1.582 2.758 1.229.333 2.129-.461 2.452-.806-.792 1.826-2.026 2.918-2.026 2.918s1.408-.284 2.48.673c0 0-.514-1.565-.276-3.54.105.462.48 1.598 1.71 1.932 1.199.325 2.433-.383 2.758-1.582C23.935 14.909 21.003 13.449 20.436 10.632z"/>
</svg>
